{
    "asset": {
        "version": "2.0",
        "generator": "Open Asset Import Library (assimp v4.1.0)"
    },
    "accessors": [
        {
            "bufferView": 0,
            "byteOffset": 0,
            "componentType": 5126,
            "count": 3921,
            "type": "VEC3",
            "max": [
                2.6984329223632814,
                1.0,
                2.6984329223632814
            ],
            "min": [
                -2.6984329223632814,
                -1.0,
                -2.698431968688965
            ]
        },
        {
            "bufferView": 1,
            "byteOffset": 0,
            "componentType": 5126,
            "count": 3921,
            "type": "VEC3",
            "max": [
                1.0,
                1.0,
                1.0
            ],
            "min": [
                -1.0,
                -1.0,
                -1.0
            ]
        },
        {
            "bufferView": 2,
            "byteOffset": 0,
            "componentType": 5126,
            "count": 3921,
            "type": "VEC2",
            "max": [
                1.0,
                0.9982489943504334
            ],
            "min": [
                0.0,
                0.003782987594604492
            ]
        },
        {
            "bufferView": 3,
            "byteOffset": 0,
            "componentType": 5125,
            "count": 21840,
            "type": "SCALAR",
            "max": [
                1911.0
            ],
            "min": [
                0.0
            ]
        }
    ],
    "buffers": [
        {
            "byteLength": 212832,
            "uri": "saturn.bin"
        }
    ],
    "bufferViews": [
        {
            "buffer": 0,
            "byteOffset": 0,
            "byteLength": 47052,
            "target": 34962
        },
        {
            "buffer": 0,
            "byteOffset": 47052,
            "byteLength": 47052,
            "target": 34962
        },
        {
            "buffer": 0,
            "byteOffset": 94104,
            "byteLength": 31368,
            "target": 34962
        },
        {
            "buffer": 0,
            "byteOffset": 125472,
            "byteLength": 87360,
            "target": 34963
        }
    ],
    "materials": [
        {
            "name": "DefaultMaterial",
            "pbrMetallicRoughness": {
                "baseColorFactor": [
                    0.6000000238418579,
                    0.6000000238418579,
                    0.6000000238418579,
                    1.0
                ],
                "metallicFactor": 0.0
            }
        },
        {
            "name": "initialShadingGroup",
            "pbrMetallicRoughness": {
                "baseColorFactor": [
                    0.6000000238418579,
                    0.6000000238418579,
                    0.6000000238418579,
                    1.0
                ],
                "metallicFactor": 0.0
            }
        }
    ],
    "meshes": [
        {
            "name": "pTorus3",
            "primitives": [
                {
                    "mode": 4,
                    "material": 1,
                    "indices": 3,
                    "attributes": {
                        "POSITION": 0,
                        "NORMAL": 1,
                        "TEXCOORD_0": 2
                    }
                }
            ]
        }
    ],
    "nodes": [
        {
            "name": "saturn.obj",
            "children": [
                1,
                2
            ]
        },
        {
            "name": "default"
        },
        {
            "name": "pTorus3",
            "mesh": 0
        }
    ],
    "scenes": [
        {
            "nodes": [
                0
            ]
        }
    ],
    "scene": 0
}